# xmcd CD database file
#
# Track frame offsets:
#	150
#	14225
#	30163
#	74628
#	92681
#	134734
#	157494
#	178690
#	201783
#	230564
#	248234
#	278721
#
# Disc length: 4130 seconds
#
# Revision: 0
# Processed by: cddbd v1.5.2PL0 Copyright (c) Steve Scherf et al.
# Submitted via: CDex 1.51
#
DISCID=b510200c
DTITLE=Komissie da botri - Kaseko Special vol. 5
DYEAR=2006
DGENRE=Salsa
TTITLE0=Karma - Komissie
TTITLE1=Surinam Golden Gate Boys - Kokodiako
TTITLE2=Kaseko Masters - Ma Maisa
TTITLE3=Zonnebloem - Polonaise
TTITLE4=Sukru Sani - Pompo Lollie
TTITLE5=Zonnebloem - Mooi Agosta
TTITLE6=Jennifer Tordjo - Lieve Schat
TTITLE7=Bose Krioro - Wan Dey
TTITLE8=Sabakoe - Wiriang
TTITLE9=Anne Goedhart - Mi Puwema
TTITLE10=Naks Kaseko Loco - Mi Ná gran wan
TTITLE11=Ewald Krolis and Caribbean Combo - Madje
EXTD=YEAR: 2006
EXTT0=
EXTT1=
EXTT2=
EXTT3=
EXTT4=
EXTT5=
EXTT6=
EXTT7=
EXTT8=
EXTT9=
EXTT10=
EXTT11=
PLAYORDER=
